<svg width="130" height="217" viewBox="0 0 130 217" fill="none" xmlns="http://www.w3.org/2000/svg">
<circle cx="65.1762" cy="43.1321" r="43.0002" fill="#EB0102"/>
<path fill-rule="evenodd" clip-rule="evenodd" d="M2.05293 200.755C1.1888 200.219 0.676025 199.268 0.676025 198.252V76.2741C0.676025 74.6173 2.01917 73.2741 3.67602 73.2741H19.1568C20.1495 73.2741 21.0733 73.7687 21.6559 74.5726C23.3165 76.8636 25.1591 79.0251 27.1692 81.0351C32.1604 86.0263 38.0857 89.9855 44.607 92.6867C51.1283 95.3879 58.1177 96.7782 65.1763 96.7782C72.2349 96.7782 79.2244 95.3879 85.7456 92.6867C92.2669 89.9855 98.1923 86.0263 103.183 81.0351C105.193 79.0251 107.036 76.8636 108.697 74.5726C109.279 73.7687 110.203 73.2741 111.196 73.2741H126.677C128.333 73.2741 129.677 74.6173 129.677 76.2741V198.252C129.677 199.268 129.164 200.219 128.3 200.755C128.1 200.879 127.899 201.002 127.697 201.125C119.487 206.116 109.739 210.075 99.0122 212.777C88.2849 215.478 76.7875 216.868 65.1763 216.868C53.5652 216.868 42.0677 215.478 31.3404 212.777C20.6132 210.075 10.8661 206.116 2.65579 201.125C2.45381 201.002 2.25285 200.879 2.05293 200.755Z" fill="#2C2C2C"/>
<g clip-path="url(#clip0)">
<path d="M97.8032 118.842H33.7089C32.6073 118.842 31.7142 119.735 31.7142 120.837V132.854C31.7142 133.956 32.6073 134.849 33.7089 134.849H35.7201V168.907C35.7201 170.009 36.6132 170.902 37.7148 170.902H93.7973C94.8989 170.902 95.7919 170.009 95.7919 168.907V134.849H97.8032C98.9048 134.849 99.7978 133.956 99.7978 132.854V120.837C99.7978 119.735 98.9048 118.842 97.8032 118.842ZM91.8027 166.913H39.7094V134.849H91.8027V166.913ZM95.8085 130.86H35.7035V122.831H95.8085V130.86Z" fill="#DDDDDD"/>
<path d="M61.7502 150.873H69.762C73.0707 150.873 75.7625 148.181 75.7625 144.872C75.7625 141.563 73.0707 138.871 69.762 138.871H61.7502C58.4415 138.871 55.7496 141.563 55.7496 144.872C55.7496 148.181 58.4415 150.873 61.7502 150.873ZM61.7502 142.861H69.762C70.871 142.861 71.7732 143.763 71.7732 144.872C71.7732 145.981 70.871 146.883 69.762 146.883H61.7502C60.6411 146.883 59.7389 145.981 59.7389 144.872C59.7389 143.763 60.6411 142.861 61.7502 142.861Z" fill="#DDDDDD"/>
</g>
<defs>
<clipPath id="clip0">
<rect width="68.0836" height="68.0836" fill="white" transform="translate(31.7142 110.83)"/>
</clipPath>
</defs>
</svg>
